/* XPM */
static char *_d6ea845bdaf4b08b31799517ef037c2U5uSdm5CFKL7XHQi[] = {
/* columns rows colors chars-per-pixel */
"64 64 4 1 ",
"  c red",
". c #47FF00",
"X c #FBC700",
"o c #2500FF",
/* pixels */
"XXXXXXXXXXXXXXXXXXXXXXXXXXXXXXXXXXXXXXXXXXXXXXXXXXXXXXXXXXXXXXXX",
"XXXXXXXXXXXXXXXXXXXXXXXXXXXXXXXXXXXXXXXXXXXXXXXXXXXXXXXXXXXXXXXX",
"XX          XXXXXXXXXXXXXXXXXXXXXX..........ooooooooooooooooooXX",
"XX          XXXXXXXXXXXXXXXXXXXXXX..........ooooooooooooooooooXX",
"XX          XXXXXXXXXXXXXXXXXXXXXX..........ooooooooooooooooooXX",
"XX          XXXXXXXXXXXXXXXXXXXXXX..........ooooooooooooooooooXX",
"XX          XXXXXXXXXXXXXXXXXXXXXX..........ooooooooooooooooooXX",
"XX          XXXXXXXXXXXXXXXXXXXXXX..........ooooooooooooooooooXX",
"XX          XXXXXXXXXXXXXXXXXXXXXX..........ooooooooooooooooooXX",
"XX          XXXXXXXXXXXXXXXXXXXXXX..........ooooooooooooooooooXX",
"XX          XXXXXXXXXXXXXXXXXXXXXX..........ooooooooooooooooooXX",
"XX          XXXXXXXXXXXXXXXXXXXXXX..........ooooooooooooooooooXX",
"XX          XXXXXXXXXXXXXXXXXXXXXX..........ooooooooooooooooooXX",
"XX          XXXXXXXXXXXXXXXXXXXXXX..........ooooooooooooooooooXX",
"XX          XXXXXXXXXXXXXXXXXXXXXX..........ooooooooooooooooooXX",
"XX          XXXXXXXXXXXXXXXXXXXXXX..........ooooooooooooooooooXX",
"XX          XXXXXXXXXXXXXXXXXXXXXX..........ooooooooooooooooooXX",
"XX          XXXXXXXXXXXXXXXXXXXXXX..........ooooooooooooooooooXX",
"XX          XXXXXXXXXXXXXXXXXXXXXX..........ooooooooooooooooooXX",
"XX          XXXXXXXXXXXXXXXXXXXXXX..........ooooooooooooooooooXX",
"XX          XXXXXXXXXXXXXXXXXXXXXX..........ooooooooooooooooooXX",
"XX          XXXXXXXXXXXXXXXXXXXXXX..........ooooooooooooooooooXX",
"XX          XXXXXXXXXXXXXXXXXXXXXX..........ooooooooooooooooooXX",
"XX          XXXXXXXXXXXXXXXXXXXXXX..........ooooooooooooooooooXX",
"XX          XXXXXXXXXXXXXXXXXXXXXX..........ooooooooooooooooooXX",
"XX          XXXXXXXXXXXXXXXXXXXXXX..........ooooooooooooooooooXX",
"XX          XXXXXXXXXXXXXXXXXXXXXX..........ooooooooooooooooooXX",
"XX          XXXXXXXXXXXXXXXXXXXXXX..........ooooooooooooooooooXX",
"XX          XXXXXXXXXXXXXXXXXXXXXX..........ooooooooooooooooooXX",
"XX          XXXXXXXXXXXXXXXXXXXXXX..........ooooooooooooooooooXX",
"XX          XXXXXXXXXXXXXXXXXXXXXX..........ooooooooooooooooooXX",
"XX          XXXXXXXXXXXXXXXXXXXXXX..........ooooooooooooooooooXX",
"XX          XXXXXXXXXXXXXXXXXXXXXX..........ooooooooooooooooooXX",
"XX          XXXXXXXXXXXXXXXXXXXXXX..........ooooooooooooooooooXX",
"XX          XXXXXXXXXXXXXXXXXXXXXX..........ooooooooooooooooooXX",
"XX          XXXXXXXXXXXXXXXXXXXXXX..........ooooooooooooooooooXX",
"XX          XXXXXXXXXXXXXXXXXXXXXX..........ooooooooooooooooooXX",
"XX          XXXXXXXXXXXXXXXXXXXXXX..........ooooooooooooooooooXX",
"XX          XXXXXXXXXXXXXXXXXXXXXX..........ooooooooooooooooooXX",
"XX          XXXXXXXXXXXXXXXXXXXXXX..........ooooooooooooooooooXX",
"XX          XXXXXXXXXXXXXXXXXXXXXX..........ooooooooooooooooooXX",
"XX          XXXXXXXXXXXXXXXXXXXXXX..........ooooooooooooooooooXX",
"XX          XXXXXXXXXXXXXXXXXXXXXX..........ooooooooooooooooooXX",
"XX          XXXXXXXXXXXXXXXXXXXXXX..........ooooooooooooooooooXX",
"XX          XXXXXXXXXXXXXXXXXXXXXX..........ooooooooooooooooooXX",
"XX          XXXXXXXXXXXXXXXXXXXXXX..........ooooooooooooooooooXX",
"XX          XXXXXXXXXXXXXXXXXXXXXX..........ooooooooooooooooooXX",
"XX          XXXXXXXXXXXXXXXXXXXXXX..........ooooooooooooooooooXX",
"XX          XXXXXXXXXXXXXXXXXXXXXX..........ooooooooooooooooooXX",
"XX          XXXXXXXXXXXXXXXXXXXXXX..........ooooooooooooooooooXX",
"XX          XXXXXXXXXXXXXXXXXXXXXX..........ooooooooooooooooooXX",
"XX          XXXXXXXXXXXXXXXXXXXXXX..........ooooooooooooooooooXX",
"XX          XXXXXXXXXXXXXXXXXXXXXX..........ooooooooooooooooooXX",
"XX          XXXXXXXXXXXXXXXXXXXXXX..........ooooooooooooooooooXX",
"XX          XXXXXXXXXXXXXXXXXXXXXX..........ooooooooooooooooooXX",
"XX          XXXXXXXXXXXXXXXXXXXXXX..........ooooooooooooooooooXX",
"XX          XXXXXXXXXXXXXXXXXXXXXX..........ooooooooooooooooooXX",
"XX          XXXXXXXXXXXXXXXXXXXXXX..........ooooooooooooooooooXX",
"XX          XXXXXXXXXXXXXXXXXXXXXX..........ooooooooooooooooooXX",
"XX          XXXXXXXXXXXXXXXXXXXXXX..........ooooooooooooooooooXX",
"XX          XXXXXXXXXXXXXXXXXXXXXX..........ooooooooooooooooooXX",
"XX          XXXXXXXXXXXXXXXXXXXXXX..........ooooooooooooooooooXX",
"XXXXXXXXXXXXXXXXXXXXXXXXXXXXXXXXXXXXXXXXXXXXXXXXXXXXXXXXXXXXXXXX",
"XXXXXXXXXXXXXXXXXXXXXXXXXXXXXXXXXXXXXXXXXXXXXXXXXXXXXXXXXXXXXXXX"
};
