/* XPM */
static char *bfbd7ea878c1424b83b561a519c1ed9fEPzWQk5ePKUH5Rwx[] = {
/* columns rows colors chars-per-pixel */
"64 64 102 2 ",
"   c #C09B62",
".  c #BE9A61",
"X  c #A3884F",
"o  c #A1864E",
"O  c #A1864F",
"+  c #C09B63",
"@  c #BF9B62",
"#  c #B9955C",
"$  c #B8945C",
"%  c #A38850",
"&  c #A58951",
"*  c #A3874F",
"=  c #A2874F",
"-  c #9E844D",
";  c #9E834D",
":  c #A58950",
">  c #BE9960",
",  c #BD9960",
"<  c #B7945C",
"1  c #B6935B",
"2  c #BC9860",
"3  c #BF9A62",
"4  c #B28F59",
"5  c #7C653F",
"6  c #77623C",
"7  c #78623D",
"8  c #B7935B",
"9  c #B9945C",
"0  c #B9955D",
"q  c #B8955D",
"w  c #A58850",
"e  c #B3905A",
"r  c #79633D",
"t  c #745F3B",
"y  c #75603B",
"u  c #79633E",
"i  c #B7935C",
"p  c #6A5535",
"a  c #715A38",
"s  c #BA965F",
"d  c #705A38",
"f  c #9D834C",
"g  c #B4915A",
"h  c #BB975F",
"j  c #B39059",
"k  c #B5925C",
"l  c #B9965E",
"z  c #A0854E",
"x  c #6E5937",
"c  c #6F5937",
"v  c #77613C",
"b  c #7A633E",
"n  c #6B5635",
"m  c #735E3B",
"M  c #6B5636",
"N  c #74603C",
"B  c #BF9B63",
"V  c #9D834D",
"C  c #BF9A61",
"Z  c #BC985F",
"A  c #A0844E",
"S  c #7C653E",
"D  c #B29059",
"F  c #B8945B",
"G  c #B8955E",
"H  c #79623D",
"J  c #705B39",
"K  c #715B39",
"L  c #77623D",
"P  c #75603C",
"I  c #A48850",
"U  c #B9955E",
"Y  c #7E6740",
"T  c #7A643F",
"R  c #BE9961",
"E  c #BA975F",
"W  c #755F3B",
"Q  c #B18F59",
"!  c #745E3B",
"~  c #B7945B",
"^  c #765F3B",
"/  c #B5925A",
"(  c #B8945D",
")  c #C09B61",
"_  c #9F844D",
"`  c #9F844E",
"'  c #BB9760",
"]  c #7F663F",
"[  c #80673F",
"{  c #826841",
"}  c #816740",
"|  c #7A643E",
" . c #56442A",
".. c #58462B",
"X. c #7C643E",
"o. c #7D643E",
"O. c #7C633D",
"+. c #4D3D26",
"@. c #4F3F27",
"#. c #685334",
"$. c #7D653F",
"%. c #4E3E27",
/* pixels */
"      . X o o o o o o o o o o O O o o X .     +       @ # $ $ $ o o o % .                     + +             +       . X o o o ",
"      . X o o o o o o o o o o o o o o X .             @ # $ $ $ o o o % .                                             . X o o o ",
"      . X o o o o o o o o o o o o o o X .             @ # $ $ $ o o o % .                                             . X o o o ",
"      . & X X X * * * = - ; ; ; * * * : >       . . . , < 1 1 1 o o o X 2 . . . . . . . 3       . . . . @             . X o o o ",
"        . . . . 1 1 1 4 5 6 6 7 1 1 1 8 9 0 0 q % % % % * * * * o o o o * % % % % % % w < 0 0 0 % % % : < 0 0 0       . X o o o ",
"                $ $ $ e r t t y $ $ $ $ $ $ $ $ o o o o o o o o o o o o o o o o o o o * 1 $ $ $ o o o * 1 $ $ $       . X o o o ",
"                $ $ $ e r t t y $ $ $ $ $ $ $ $ o o o o o o o o o o o o o o o o o o o * 1 $ $ $ o o o * 1 $ $ $       . X o o o ",
"                $ $ $ e u t t y $ $ $ $ $ $ $ $ o o o o o o o o o o o o o o o o o o o * 1 $ $ $ o o o * 8 $ $ $       . X o o o ",
"                o o o o o o o o o o o o o o o o $ $ $ $ $ $ $ $                       @ # $ $ i p p p a s             . X o o o ",
"                o o o o o o o o o o o o o o o o $ $ $ $ $ $ $ $                       @ # $ $ i p p p d s             . X o o o ",
"                o o o o o o o o o o o o o o o o $ $ $ $ $ $ $ $                       @ # $ $ i p p p d s             . X o o o ",
"s s s s s s s s f f f f ; ; ; ; ; ; ; ; ; ; ; ; e e e e e e e g h h h h h h h h s s s s e j j 4 p p p d k s s s h h h l z ; ; ; ",
"d d d d d d d d x x x c v 6 6 6 6 6 6 6 6 6 6 6 u u u u u u u u b b b b b b b b d d d d d d d d p p p p d d d d b b b u 7 6 6 6 ",
"p p p p p p p p p p p n m t t t t t t t t t t t t t t t t t t t t t t t t t t t p p p p p p p p p p p p p p p p t t t t t t t t ",
"p p p p p p p p p p p n m t t t t t t t t t t t t t t t t t t t t t t t t t t t p p p p p p p p p p p p p p p p t t t t t t t t ",
"M p p p p p p p p p p n m t t t t t t t t t t t t t t t t t t t t t t t t t t t p p p p p p p p p p p p p p p p t t t t t t t N ",
"B @ @ , * o o o o o o o o o o o o o o * , @ @ @ @ @ @ , * o o o   @ @ , * o o o o o o V 6 t t y < < < < < < < < $ $ $ $ C @ @ B ",
"      . X o o o o o o o o o o o o o o X .             . X o o o       . X o o o o o o ; 6 t t y $ $ $ $ $ $ $ $ $ $ $ 0         ",
"      . X o o o o o o o o o o o o o o X .             . X o o o       . X o o o o o o ; 6 t t y $ $ $ $ $ $ $ $ $ $ $ 0         ",
". . . Z * o o o ; ; ; - = * * * * * * w , 3 3 3       . X o o o   3 3 , w * * * * * * A S r r u 1 1 1 1 1 1 1 1 1 1 1 < , . . . ",
"X X X * o o o o 6 6 6 5 D 1 1 1 1 1 1 1 $ 9 9 9       . X o o o 0 9 9 $ 1 1 1 1 1 1 1 1 e e e e * * * * * * * * * * * * X X X X ",
"o o o o o o o o t t t r e $ $ $ $ $ $ $ $ $ $ $       . X o o o $ $ $ $ $ $ $ $ $ $ $ $ $ $ $ $ o o o o o o o o o o o o o o o o ",
"o o o o o o o o t t t r e $ $ $ $ $ $ $ $ $ $ $       . X o o o $ $ $ $ $ $ $ $ $ $ $ $ $ $ $ $ o o o o o o o o o o o o o o o o ",
"O o o o o o o o t t t r e $ $ $ $ $ $ $ $ $ $ F       . X o o o $ $ $ $ $ $ $ $ $ $ $ $ $ $ $ $ o o o o o o o o o o o o o o o O ",
"                      3 # $ $ $                       . X o o o o o o o o o o o t t t b h                                       ",
"                      @ # $ $ $                       . X o o o o o o o o o o o t t t b h                                       ",
"                      @ # $ $ $                       . X o o o o o o o o o o o t t t b h                                       ",
"h h h h h h h h s s s s e j j j s s s s s s s s s s s G z ; ; ; ; ; ; ; ; ; ; ; m m m H k s s s s s s s s s s s h h h h h h h h ",
"b b b b b b b b d d d d d d d d d d d d d d d J d d d K 6 L L L L L L L L L L L n n n M d d d d d d d d d d d d b b b b b b b b ",
"t t t t t t t t p p p p p p p p p p p p p p p M p p p M m t t t t t t t t t t t p p p p p p p p p p p p p p p p t t t t t t t t ",
"t t t t t t t t p p p p p p p p p p p p p p p M p p p M m t t t t t t t t t t t p p p p p p p p p p p p p p p p t t t t t t t t ",
"t t t t t t t t p p p p p p p p p p p p p p p M p p p M m t t t t t t t t t t t p p p p p p p p p p p p p p p p t t t t t t t t ",
"                                      h u t t P o o o I .               0 $ $ $ $ $ $ $ $ $ $ $                       . I o o o ",
"                                      s u t t P o o o % .             @ # $ $ $ $ $ $ $ $ $ $ $                       . X o o o ",
"                                      s u t t P o o o % .             @ # $ $ $ $ $ $ $ $ $ $ $                       . X o o o ",
". . . . . . . . . . . . . . . . . . . U Y u u T * * * & R       . . . , < 1 1 1 1 1 1 1 g e e e         . . . . . . . Z * o o o ",
"% % % % % % % % % % % % % % % % % % % & l E E E 1 1 1 8 9 0 0 0 % % % % * * * * * * * z 5 r r b       . & % % % % % % * o o o o ",
"o o o o o o o o o o o o o o o o o o o X .       $ $ $ $ $ $ $ $ o o o o o o o o o o o ; 6 t t y       > * o o o o o o o o o o o ",
"o o o o o o o o o o o o o o o o o o o X .       $ $ $ $ $ $ $ $ o o o o o o o o o o o ; 6 t t y       > * o o o o o o o o o o o ",
"o o o o o o o o o o o o o o o o o o o I .       $ $ $ $ $ $ $ $ o o o o o o o o o o o ; 7 W W P       > % o o o o o o o o o o o ",
"      @ # $ $ $ $ $ $ $ $ $ $ $                 o o o o o o o o o o o o o o o o $ $ $ $ $ $ $ $ $ $ $ $ $ $ $ $ $ $ $ 1 * o o o ",
"      @ # $ $ $ $ $ $ $ $ $ $ $                 o o o o o o o o o o o o o o o o $ $ $ $ $ $ $ $ $ $ $ $ $ $ $ $ $ $ $ 1 * o o o ",
"      @ # $ $ $ $ $ $ $ $ $ $ $                 o o o o o o o o o o o o o o o o $ $ $ $ $ $ $ $ $ $ $ $ $ $ $ $ $ $ $ 1 * o o o ",
"h h h s e j j j e e e e e e e e s s s s s s s s f f f f ; ; ; ; ; ; ; ; ; ; ; - g e e e e e e e j j j j j j j j j j j Q A ; ; ; ",
"b b b r d d d d u u u u u u u u d d d d d d d d x x x c v 6 6 6 6 6 6 6 6 6 6 6 u u u u u u u u d d d d d d d d d d d d v 6 6 6 ",
"t t t m n p p p t t t t t t t t p p p p p p p p p p p M m t t t t t t t t t t t t t t t t t t t p p p p p p p p p p p M m t t t ",
"t t t m n p p p t t t t t t t t p p p p p p p p p p p M m t t t t t t t t t t t t t t t t t t t p p p p p p p p p p p M m t t t ",
"N t t ! n p p p t t t t t t t t p p p p p p p p p p p M m t t t t t t t t t t t t t t t t t t t p p p p p p p p p p p M ! t t N ",
"B @ @ @ @ @ @ @ @ @ @ @ @ @ @ @ @ @ @ , * o o o @ @ @ , * o o o o o o o o o o o o o o o o o o o @ @ @ s u t t y @ @ @ @ @ @ @ B ",
"                                      > * o o o       . X o o o o o o o o o o o o o o o o o o o       s u t t y                 ",
"                                      > * o o o       . X o o o o o o o o o o o o o o o o o o o       s u t t y                 ",
"3 3 3 C . . . . s s s h               . & * * X       . X o o o * * * * * * * * * * * = o o o o . . . U 5 6 6 7 . . . . 3 3 3 3 ",
"9 9 9 ~ w X X * d d d ^ h               . R R R       . X o o o . R R , ~ 1 1 1 1 1 1 / = o o o X X X * ; ; ; ; X X X : < 9 9 9 ",
"$ $ $ 1 * o o o p p p d s                             . X o o o       @ # $ $ $ $ $ $ 1 * o o o o o o o o o o o o o o * 1 $ $ $ ",
"$ $ $ 1 * o o o p p p d s                             . X o o o       @ # $ $ $ $ $ $ 1 * o o o o o o o o o o o o o o * 1 $ $ $ ",
"( $ $ 1 * o o o p p p d s                     )       . X o o o       @ # $ $ $ $ $ $ 1 * o o o o o o o o o o o o o o * 1 $ $ ( ",
"                o o o o o o o o o o o X .             . X o o o                 o o o * 1 $ $ $                                 ",
"                o o o o o o o o o o o X .             . X o o o                 o o o * 1 $ $ $                                 ",
"                o o o o o o o o o o o X .             . X o o o                 o o o * 1 $ $ $                                 ",
"h h h h h h h h ; ; ; ; _ _ _ _ f f f ` G s s s ' ' ' l ` f f ; ' h h h h h h h ; ; ; A 4 e e e G G G G s s s s s s s s h h h h ",
"b b b b b b b b L L L 7 ] [ [ [ x x x x d d d d { { { } d x x x | b b b b b b b L L L 7 r u u u  . . ...c d d d d d d K u b b b ",
"t t t t t t t t t t t W X.o.o.o.p p p p p p p p o.o.o.O.M p p p t t t t t t t t t t t t t t t t +.+.+.@.#.p p p p p p M m t t t ",
"t t t t t t t t t t t W X.o.o.o.p p p p p p p p o.o.o.O.M p p p t t t t t t t t t t t t t t t t +.+.+.@.#.p p p p p p M m t t t ",
"t t t t t t t t t t t W X.o.o.$.M p p p p p p M o.o.o.O.M p p p t t t t t t t t t t t t t t t N %.+.+.@.#.p p M p p p M m t t t "
};
