/* XPM */
static char *_4073ab3fbdd4b42d0267864e4d7b245CQeXAoJxQOIwtoMh[] = {
/* columns rows colors chars-per-pixel */
"64 64 256 2 ",
"   c #000000",
".  c #0C0000",
"X  c #1B0100",
"o  c #0D180B",
"O  c #1E1703",
"+  c #330E0B",
"@  c #271706",
"#  c #231B04",
"$  c #2A1C05",
"%  c #241D0B",
"&  c #291D13",
"*  c #2B240B",
"=  c #2C240D",
"-  c #382207",
";  c #33240C",
":  c #33280E",
">  c #2C2413",
",  c #2E2813",
"<  c #2C2619",
"1  c #2D251B",
"2  c #342613",
"3  c #392613",
"4  c #332913",
"5  c #3B2913",
"6  c #32261B",
"7  c #3B271E",
"8  c #32291D",
"9  c #3D2A1A",
"0  c #38331D",
"q  c #2C2021",
"w  c #2F2C20",
"e  c #342B22",
"r  c #3A2D25",
"t  c #392C29",
"y  c #393126",
"u  c #35312C",
"i  c #3B312B",
"p  c #3D3331",
"a  c #471501",
"s  c #46240B",
"d  c #432B1A",
"f  c #472B18",
"g  c #542F16",
"h  c #6F2C0C",
"j  c #6A3516",
"k  c #753919",
"l  c #442C25",
"z  c #532E2C",
"x  c #463528",
"c  c #563628",
"v  c #463936",
"b  c #6F3A23",
"n  c #673A38",
"m  c #52463B",
"M  c #7B4525",
"N  c #6D463A",
"B  c #784735",
"V  c #5E3D42",
"C  c #564B45",
"Z  c #5D5347",
"A  c #64564D",
"S  c #73524E",
"D  c #6A5B55",
"F  c #6C6056",
"G  c #766558",
"H  c #6C5966",
"J  c #696663",
"K  c #6A6968",
"L  c #7B6C63",
"P  c #796B66",
"I  c #7D706D",
"U  c #903408",
"Y  c #E81D00",
"T  c #8E4714",
"R  c #B9571B",
"E  c #854828",
"W  c #924F36",
"Q  c #8B5438",
"!  c #AE582E",
"~  c #A8583B",
"^  c #B46334",
"/  c #C4610C",
"(  c #CE7034",
")  c #885549",
"_  c #9A5747",
"`  c #985D56",
"'  c #A85A49",
"]  c #B45B4C",
"[  c #AD5C54",
"{  c #8F6758",
"}  c #B4614E",
"|  c #AA6557",
" . c #B86857",
".. c #BC6C5B",
"X. c #BD745C",
"o. c #926E69",
"O. c #87776A",
"+. c #84746C",
"@. c #8A7B77",
"#. c #AA6A64",
"$. c #B76C67",
"%. c #A9736B",
"&. c #BA746A",
"*. c #AE7A74",
"=. c #BA7573",
"-. c #BA7876",
";. c #D45E53",
":. c #CF7745",
">. c #C26C57",
",. c #C6755A",
"<. c #C66D66",
"1. c #C5786A",
"2. c #D87868",
"3. c #C67B76",
"4. c #D37C7A",
"5. c #E08D3D",
"6. c #8F8179",
"7. c #95867A",
"8. c #AF8673",
"9. c #BB8679",
"0. c #D5864F",
"q. c #E99A57",
"w. c #CA8D70",
"e. c #CB837B",
"r. c #C98578",
"t. c #D5847C",
"y. c #D89678",
"u. c #EC9872",
"i. c #EFA778",
"p. c #907A8A",
"a. c #A37C88",
"s. c #DD7B81",
"d. c #9A8A85",
"f. c #9C928C",
"g. c #A58889",
"h. c #A5948A",
"j. c #B18A91",
"k. c #A79796",
"l. c #B79896",
"z. c #B3A399",
"x. c #A99AA8",
"c. c #B99AA8",
"v. c #A79EBB",
"b. c #B09EB2",
"n. c #ABA3A7",
"m. c #B7A6A9",
"M. c #AEA2B6",
"N. c #A6A3BD",
"B. c #ACA3BC",
"V. c #B3A2B5",
"C. c #BBA4B4",
"Z. c #B2A4BB",
"A. c #BBA6BB",
"S. c #B6A9BA",
"D. c #BAABBC",
"F. c #CC8A83",
"G. c #C88886",
"H. c #D58885",
"J. c #D48C8C",
"K. c #D1938B",
"L. c #C98D91",
"P. c #D48E91",
"I. c #C89897",
"U. c #D89396",
"Y. c #E49293",
"T. c #CFA494",
"R. c #DAAB98",
"E. c #E6A894",
"W. c #E8AD94",
"Q. c #C79EA3",
"!. c #D297A1",
"~. c #C7A5A8",
"^. c #D5AAA8",
"/. c #C6AAB8",
"(. c #D7ADB3",
"). c #C8B3BB",
"_. c #D6B6BA",
"`. c #E6B5AD",
"'. c #A6A4C2",
"]. c #AAA6C2",
"[. c #ACA9C4",
"{. c #A7A7C9",
"}. c #ACAACA",
"|. c #B7A6C3",
" X c #B4ABC3",
".X c #BAACC3",
"XX c #B2AECA",
"oX c #BDADCA",
"OX c #B4B2CD",
"+X c #B9B2C8",
"@X c #BCB4CD",
"#X c #ACABD1",
"$X c #B2AED2",
"%X c #B5B3D3",
"&X c #BBB6D2",
"*X c #BDBAD5",
"=X c #B4B5DA",
"-X c #BBB6DB",
";X c #BDBBDB",
":X c #B5B8E0",
">X c #BDBCE3",
",X c #C2ADC5",
"<X c #C7B7C7",
"1X c #C3B4CC",
"2X c #CBBCCD",
"3X c #D6BAC6",
"4X c #C7B9D5",
"5X c #C4BBD4",
"6X c #CABDD4",
"7X c #C4BDDC",
"8X c #D8BDD2",
"9X c #E2B6C9",
"0X c #C3BEE4",
"qX c #C6BFE7",
"wX c #BDC0DF",
"eX c #BEC2E4",
"rX c #D7C3CB",
"tX c #C5C2DC",
"yX c #CBC6DB",
"uX c #CCC4DD",
"iX c #D4C7DC",
"pX c #E2C9D5",
"aX c #C4C2E4",
"sX c #CAC4E3",
"dX c #CDCAE4",
"fX c #C5C2EA",
"gX c #CAC3EB",
"hX c #C5C9EB",
"jX c #CCCBEC",
"kX c #D3CCE4",
"lX c #D9CCE5",
"zX c #D2CDEA",
"xX c #D4D3E4",
"cX c #D9D4E6",
"vX c #D5D2EC",
"bX c #D9D3EC",
"nX c #DDDAED",
"mX c #C8C6F2",
"MX c #CBCBF2",
"NX c #CFD0F1",
"BX c #CED1F2",
"VX c #D4D5F3",
"CX c #DCDBF3",
"ZX c #D9D8F5",
"AX c #E2CDE3",
"SX c #E1DAEC",
"DX c #E6DBF5",
"FX c #E2DDF4",
"GX c #DFE1F2",
"HX c #E8E6ED",
"JX c #E5E3F4",
"KX c #EBE7F6",
"LX c #E4E3FA",
"PX c #ECEAFB",
"IX c #F0EEFA",
"UX c #F5F4FC",
/* pixels */
"=X=X=X=X>X>X>X-XqXMXBXVXjXVXBXhX*X[.}.XXOXOXOXOX}.N.B.S.S..X.XoX1XyXbXlXAXDXnXDXzXDXZXbXZXzXdX0XOXB.B.B.N.B.M.N.[.N.{.wXeXBXhXhX",
":XhX>X:X>X0X0X>XVXZXVXCXBXBXaX}.[.OXXXXX[.{.B.N.N.N.B.B.+XD.)..X.X.X.X,X1X<X1X,XoX4XqXAXZXlXdXsXsX XB.B.B.B.N.B.B.N.'.%XeXeXhXVX",
"hXBX>X>X>X>X0X0XqXaXtX0X=X#X{.}.[.B.[.OX}.[.B.B.M.N.S.~.T.y.i.E.^.^.`.(.<X,X.X,X,XoXoX7XzXzXbXsXsXtX[.B.B.N.B.N.[.N.N.'.eXhXBXBX",
">XhX>X0X0X0XqXqX>X-X$X$X#X#XXXXXOX*XeX%X}.B.B.B.S._.W.q.5.5.R 0.0.R ! :.Y.^.3X,X,X,XoX|.|.oX7X7XsXuX[.B.B.N.N.B.[.[.[.'.N.OXwX=X",
"eX>X>XfX0XqXqXqX0X;X-X=X%X$XXXXXOX;XcXXXXX[.B.S.rXR.R ! ^ U ~ ^ U h h h U T 9.`.rX1XoX.X|.|.v.v.N.v.N.].N.N.'.N.&XOXN.'.[.N.'.XX",
"eXeX0XfXfXqXfXqXqXfXsXsX*X%X$XXXOXOXOXOXOXXXS.C.`.i.R E k U M U T E Q E E W T &.`.3XA.|.|.Z.|.v.N.N.N.'.B.].[.N.OXOX'.'.[.N.}.OX",
"VXeXmXfXmXgXqXfXfXCXCXzXvXsXaXaXOXOX[.XX X XC.^.W.0.( ! k h j j k W E k k M Q T ~ ^.A.V.Z.|.|.].B.N.B.B.'.].'.'.[.N.'.'.N.'.{.wX",
"VXhXhXqXqXfXfXgXgXzXJXVXZXZXvXaXOXOXOX XtX+X`.i.0./ R k k k k j h k k j j j M _ T 9.3X4X4XuXyX&X7XXXN.].[.].].].{.[.OX%X;XwX;XVX",
"mXmXmXqXmXqXaXgXfXzXLXZXZXVXzXzX*XOXOX+XxX+XW.q.5.^ T h h h h g g h h h k k E E Q T _.dXyXkXtX7XsX@X].[.].].[.].[.;XBXjXBXBXMXVX",
"aXmXfXqXqXqXgXgXgXBXJXFXVXJXvXvXcX*XOX*XdX).W.i.q.R ^ ~ Q Q E M E E E E k k M k E T T.iXkXyXzXzX;X].[.].[.].].[.[.%XhXeXBXMXBXVX",
"mXeXqXmXgXqXjXMXqXqXgXdXaXdXzXtXtX&XOX XtXrXy.( 0.:.,.1.w.w.w.&.8.G.F.F.G.=._ k j T z.iXlXvXaXaX7X].[.].[.].].[.[.{.;XBXBXhXBXVX",
"VXmXmXqXqXqXMXZXqX0X0X>X-X-X=X%X%X&XOXXX[.^.0.U ~ w.>.>.1.r.F.J.J.U.K.U.U.U.F.) b T T.iXiX&XXX4XOX'.[.}.].].{.[.[.{.{.>XBXBXBXBX",
"LXMXmXfXfX0XhXZXMXaX0X;X>X;X-X%XOXXXXXOXOXT.^ T 8.w.X.X.,.1.e.F.F.J.J.P.U.P.P.#.M W T.S.B.B.B.v.N.N.&XOXN.].].[.[.'.{.'.{.%XeXeX",
"ZXmXeXfXeX>XMXLXFX0X;X;X;X*X7XsXtXdX5X|.+XI./ ^ 0.8.>.X.1.r.F.F.e.J.P.U.Y.U.L.$.E Q ~.S.Z.B.B.|.B.OXsX5XN.[.].'.'.[.[.{.{.{.{.}.",
"ZXeXqX>X>X>XjXvX>X>X0X7XtXuXzXvXxXnXyX|.|.T.:.! 0.y.' ~ ' X.t.H.F.J.U.U.U.U.P.=.E W ).S.Z.B.B.B.'.@XdXwXN.[.[.'.[.*X}.{.{.{.{.#X",
"LXmX>XmXfXfXjXhX>XaX0XdXPXJXJXJXCXFXCXzXXX~.y.^ y.X.} | _ ~ | r.3.$.3.J.U.U.P.$.E ` rXyX XZ.v.v.B.[.*X*XN.[.[.'.'.*XyXOX'.[.{.}.",
"LXeXmXmXmXfX>XfXaX0X0XbXKXCXJXJXCXJXJXCXkX^.R.y.1.~ ' _ | ' ' r.G.| _ #.3.a.G.&.U l.cXvXsXlX4XB.].B.].%X[.N.[.N.[.*XyX*X}.[.[.{.",
"PXBXMXmXmXfXfXhXgXFXFXFXKXJXJXJXcXGXnXbX3XH.W.W.y... .#.$.| } r.U.s.[ { <.=.G.#.| rXlXcXdXbXBX XB.].|.B.[.B.B.[.'.*XhXhXhX}.[.}.",
"ZXBXBXmXMXmXmXMXJXIXPXKXPXKXLXKXCXPXGXFXs.Y E.W.y.>.1.X...| | r.P.P.G.s.s.j.L.` ^.pXiXkXuXzXsXOX].N.N.B.B.[.[.[.[.*XdXsXvX7X{.}.",
"LXeXMXmXgXMXgXZXHXHXHXHXHXHXnXnXxXnXvXvXY.Y E.`.:. ... . . .&.H.U.P.P.P.U.!.L.| ^.xXlXFXkXCXvXdXzX%XB. XB.B.B.Z.N.wXvXhXaX=X}.[.",
"PXVXMXqXMXMXgXzXLXUXUXPXIXLXPXKXCXKXLXDX9X;.u.W.,.>.>... .] | 3.G.P.J.P.P.P.L.4.r.rXiXkXuXkXdXuXdXtX&XB.Z.B.B.[.[.*XdXVXBX}.[.[.",
"DXaXMXzXgXgXgXqXdXHXKXKXKXnXJXnXbXFXVXbXAX4.2.`.,.>.>.>.] ]  .<.&.H.J.J.J.J.G.<.^.SXcXcXuXvXvXyXkXzX5XB.Z.[.[.B.B.OXzXvXaX{.}.%X",
"qXqXMXqXqXgXgXgXJXUXIXIXIXKXKXJXbXCXbXZXbX^.`.`.<.>.....<.1.H.U.U.P.H.J.H.H.H.t.rXiXyXxXyXvXiXtXkX*XB.B.B.B.B.B.N.+XvXwX'.[.XXeX",
"mXqXqXgXgXgXgXDXKXUXHXKXPXKXPXJXZXLXZXZXFXAXPX9X,.>. .] [  .=.s.U.H.Y.J.H.r.3.(.vXkXuXbXdXkXkXtXdXOXN.B.B.B.B.[.B. X&XN.N.'.[.OX",
"mXqXqXMXgXMXqXDXKXIXHXHXHXHXHXnXxXxXxXxXiX5XcX_... ...} ] ] ;.<.4.1.t.H.r.^._.iXcXbXzXZXzXlXcXyXvXdX X].'.B.B.B.B.B.N.N.*XOX'.[.",
"MXqXqXqXqX8XqXbXIXUXIXIXPXKXKXLXJXLXCXJXnXuXnX3Xw. .,...>.>.<.s.H.F.r.t.K.iXiXiXiXuXuXlXuXuXyXtXuXyX7X[.B.B.B.B.B.B.N.OXtX&X].}.",
"DXqXqXzXqXqXqXqXgXSXSXKXJXJXHXnXbXCXvXCXzX@XXXQ.E.X...X.,.3.t.J.J.F.F.r.I.iXlXiXlXlXlXbXzXkXcXuXvXkX5XB.B.B.B.B.B.B.M.@XtXkX&X[.",
"qXqXqXqXqXqXqX7X7X7XqXDXKXCXJXCXZXCXZXdX XB.|.I.&.1... .>.r.K.K.K.F.e.a.~.,X6X6XiXiXuXkXuXuXiX7XuX1XB.v.B.B.M.B.B.B.5XxXtXdXdXXX",
"qXqXqXqXqXzXZX0XqX7XtXLXKXCXKXCXZXJXdX XD. XD.L.} } } [ ' }  .&.-.3.3.j.(.b.Z.2XiXiXiXlXkXuXiX+Xv.M.M.B.M.Z.M.Z.M.B.uXkXkXdXcXxX",
"qXqXlXqXqXgXDXlX7X7X7XuXSXHXKXSXnXxX X X X X.XL. .X. .' ~ ~ '  .&.3.G.s.~.<XM.V.iXcXcXSXlXlXcX+XM.B.v..X.Xv.Z.B.Z.B.5XyXdXxXxXxX",
"qXqXqXqXqXlXPXPXlX7X4X1X1X7XcXcXFXyXZ. XD.S./.J.} ......&.1.e.H.H.H.H.H.Q.j._.C.D.lXiXlXlXiX<XB.Z.M.S.<X.XM.B.Z.B.Z.tXxXxXvXvXZX",
"MXqXqXqXqXlXDXDXbX7X4X4X@X.X.X|.S.B.|. X XD.E.H. .>. . .1.e.t.4.s.J.s.!.,X+ o.).).rXiX3X,XC.V.M.V. X6X2X|.B.Z.Z.Z.B.*XdXyXdXxXcX",
"0X7X0X0X7XzXDXdX4X4X1X1X.X|..X.XS.M.B.1XiX(.2.t..... . .<.1.3.4.H.s.3.9Xb.l t H c./.~.C.m.b.b.b.V.1X6X6X.XZ.Z.V.Z.b.4XkXuXkXbXbX",
"-X-X-X7X5XuX4XoX4X1XoX6X6X4X1X|.S.D./.(.rXU.~ ^  .] [  .<.<.4.t.4.&.,X8Xp.t V 7 s { g.L.~.(.).C.S.V.Z.<X1XV.Z.Z.Z.v.1XuXuXlXvXkX",
"=X5X*X&X&X&X1X4X@X1XiXDXDXAXrX/.I.L.r.W._._.K.9.F.G.G.$.$.1.4.<.#./.4X4Xp.p v v p 3 c b Q %.j.~./.(.<X,XS.B.v.Z.Z.b.&XyXuXsXkXuX",
"%X&X&X1X&XoX1X1X1XbXDXAX3X~.G.%._ | r.R.).3Xl.l.m.m.C.-. .<.] %./.4X0X4XH p v p i t 7 l x g j B ) { g.~.).,X/.V.V.Z.1XdXdXlXbXsX",
"$XXXXXoXoXoXoX,X4XlX,XU.-.` B j N ) 8.R./.).d.G G D +.#. .] -./.4X4X4X|.q V p t r 8 6 6 9 l x f g g s k { g.~._..Xb..X6X6X7XiX1X",
"XXXXoX X.X.X@X<X(.L.-.` E c f c x B 8.R.~.).h.G +.+.7.j.| l.oX4XqX0X4XH t p p p r 6 2 2 2 3 6 7 7 t l r s g n G k.)./.6X6XsXkXoX",
"XXXX X X|./.I.j.#.| B g f f d d : b 8.R.c.C.g.G +.G d.m.b.@X*X5X4X4Xp.+ v l p t r 6 6 2 2 6 4 6 6 6 7 7 y i l 7 + k.<X6X6XuXqX|.",
" X X|.|.A.j.` ) B c f d d 9 9 9 0 g 8.W.Q.(.d.F { +.6.m.1X@X@X=X4Xv.p v p t p t 7 6 & 6 2 6 8 6 6 3 8 e 8 9 e v t D ).6X6X2X.XZ.",
"S. XS.Z.A.) z n g f d 5 5 5 5 5 0 @ 8.T.{ 8.7.F O.G 6.n.D.yXtXtX|.H l v u i r e 8 6 1 6 6 8 9 8 6 6 e e e e i p v + k.4X|.Z.Z.b.",
" XS.A.A.c.N f l x d d 0 5 5 4 5 5 5 c X m 7.O.G G G d.d.Z @.x.b.x.H + p u r r e 8 < 1 4 6 8 e < 1 8 7 e e e p p v & d.<Xb.B.Z.B.",
" XD.S.A.!.n f l f d d 5 4 : 5 5 5 5 d d x 6.{ F G F O.k.l.m.z.h.L t i i u r e 8 1 1 6 6 8 8 8 & 1 e e r e e i i v O p.<XA..X1X X",
"@X+XS.A.a.a f f 5 d 5 : : 5 5 : 3 ; 9 $ A 8.O.O.O.d.h.6.I +.@.g.@.e i e e e 8 8 8 8 6 8 8 e 1 > & 8 r r 6 q r i p p v V.2X1X6XyX",
"1X.X|.A.a.a z 7 s 5 5 5 ; 4 : 2 3 : : : x G F G F I d.h.z.l.l.7.v 7 r e e e e e e e e 1 1 e < > 1 8 e y e q e e t v X @.2X2X1X6X",
"oX.XA.A.a.a l d 5 5 5 5 5 5 2 2 2 4 4 * m 8.7.7.d.I I I P P P @.A > i r e e e u e 8 8 8 1 8 & > 1 8 e y 1 e e e u p t C ).2X<X6X",
".XA.A./.a.a l s d 5 3 5 5 4 4 2 2 2 : : 0 Z F 7.k.f.p.h.k.k.k.+.& r r e e e e e e 1 8 q e < & > < 8 y y 1 e e 8 8 q p 1 b.rX5X6X",
".XA.b.V.a.a x 3 ; ; : ; ; : : 6 2 2 0 * Z f.h.h.k.f.@.@.L F G G t r e r r e r e e w 1 1 1 & = > < 8 y e 1 e q e w e & Z D.2X1X2X",
"D.S.M.C.a.a l 3 3 ; : ; 3 : 2 2 , , , , 0 A F f.n.k.6.f.h.h.h.Z % i e e u e e t e w 1 8 < = = > 4 e y e < 8 q e w e   @.2X<X<X5X",
"D.S.b.C.o.g f 3 3 3 : 2 : 2 : 2 , , 0 * m f.f.n.n.n.@.I L A D m 6 r e e e e e e e w < < > % & = < 8 u 8 < < < w & & t x k.<X<X<X",
"Z.S.V.c.S s f 3 2 2 2 : = : > , , * , , 0 Z F z.S.k.+.f.d.h.6.% r e e e e e t e e 1 1 < % > & > < e e < < > > > % < i O m /.<X<X",
".XA.C.c.S a 3 3 ; ; : : : : = > , , 0 , 0 7.f.n.m.f.O.I G D m 8 e e e e e e e u w 1 q < O * > 1 1 w e > > * % * % e w i @ k.rX<X",
"D.D.C.c.n s d ; * - : : = = , = , , , , , Z F 6.z.6.G 7.7.8.F O r e e e e e e i t 7 1 & & > > & 6 e w > & % # O > 8 e u X 6.3X<X",
"D.D.C.c.n s 7 3 - * : : = : = , * , , , * O.k.7.L 6.6.G G Z i 8 e w w w e e o o   o & % % & 1 8 1 w 8 & % O O # > 8 e e 8 x 7./.",
"+XD./.c.V s 7 3 * $ : : : : = , * , , , * 0 Z F F F L 6.7.7.0 w e e e e w 6 &.1.` S x l & @ . q e e 8 % # # # = = < e y r r 9 D ",
"D.C.C.c.n s 9 ; $ $ * : , = = = , * , 0 # J f.7.G 6.L F F x w 0 q 1 e 8 < c [ >.H.F.$.*.%.#.` l 1 e e O O # # = = < 8 8 e u r < ",
"D.A.C.c.n s 3 ; $ $ $ : : = , = , * > , , y m F I F G O.7.F O e 1 8 e 1 e & | } ' $.<.=.=.3.s.` & i e % O # O # = = O > < < < < ",
"/.C.C.c.S - d - $ $ $ ; ; * , = = > > , = y 6.6.I +.L D Z 8 < 8 w 1 1 8 < c $.] [ $.$.$.$.$.$.=.n & t > O # O * * O % % & < 1 1 ",
".XA.C.c.N a d * $ $ $ * - * = , = = = , , , m F +.F G O.O.m % 6 1 < 1 8 o B ~ W [ $.=.=.=.=.$.3.` & u & O # % * O % > > 1 1 w 8 ",
"D.S.C.c.S a 9 ; $ $ $ $ * ; = = , = , = 8 * F 6.+.L +.D m > 4 1 1 1 < < 8 & c _ _ #.=.=.=.=.a.3.-.n < e O O * O O = > < 1 1 w 1 ",
"D.S.C.l.n s s - $ # # @ * * * * * = * * < 8 x Z P G L O.O.4 > , > > > 1 1 < 1 ) ' #.=.=.-.-.-.-.s.` q t 1 % % & > > > 1 & w q 1 ",
"/.C./.j.g z r 9 6 1 2 1 4 8 4 4 0 w 8 w y 8 Z 6.L L G A v 6 e w e e 8 w e t & N ' W ` | #.$.-.3.a.=.n t p u u u u u u u u t i i ",
"A.Q.C.@.X X .                             . X m G F G L A                       M '  .1.3.<.&.-.a.$.h   X .                     ",
"1X<X,XQ.+.P P J J J F J J J J J J K K F K K K d.f.6.@.I J J J J J K J J J K K J P %.*.-.j.L.L.L.U.L.o.J K K K K K K K K K K K K "
};
